<svg width="400" height="212" viewBox="0 0 400 212" fill="none" xmlns="http://www.w3.org/2000/svg">
<g filter="url(#filter0_d)">
<path d="M135.3 30.3V43.3C135.3 47.1667 134.867 50.3 134 52.7C133.133 55.0333 132.3 57 131.5 58.6L80.9 165.8C79.5 168.6 77.5 171 74.9 173C72.3667 175 68.9667 176 64.7 176H42.1L94.1 71.7C95.6333 68.9 97.1667 66.3667 98.7 64.1C100.3 61.7667 102.067 59.5667 104 57.5H39.9C38.9667 57.5 38.0667 57.3333 37.2 57C36.4 56.6 35.6667 56.1 35 55.5C34.4 54.8333 33.9 54.1 33.5 53.3C33.1 52.4333 32.9 51.5667 32.9 50.7V30.3H135.3ZM178.316 74.8C178.316 89.3333 185.049 96.6 198.516 96.6C205.116 96.6 210.182 94.6333 213.716 90.7C217.316 86.7 219.116 81.4 219.116 74.8C219.116 71.2667 218.582 68.1667 217.516 65.5C216.516 62.7667 215.082 60.5 213.216 58.7C211.416 56.9 209.216 55.5333 206.616 54.6C204.016 53.6667 201.182 53.2 198.116 53.2C194.982 53.2 192.182 53.7667 189.716 54.9C187.316 55.9667 185.249 57.4667 183.516 59.4C181.849 61.3333 180.549 63.6333 179.616 66.3C178.749 68.9 178.316 71.7333 178.316 74.8ZM203.116 120.8C204.049 119.667 204.949 118.567 205.816 117.5C206.682 116.433 207.482 115.367 208.216 114.3C202.082 117.567 195.116 119.2 187.316 119.2C182.582 119.2 177.849 118.367 173.116 116.7C168.382 114.967 164.082 112.367 160.216 108.9C156.416 105.433 153.316 101.067 150.916 95.8C148.516 90.5333 147.316 84.3 147.316 77.1C147.316 70.5 148.516 64.2667 150.916 58.4C153.382 52.5333 156.849 47.4 161.316 43C165.849 38.6 171.249 35.1333 177.516 32.6C183.782 30 190.782 28.7 198.516 28.7C206.382 28.7 213.416 29.9 219.616 32.3C225.816 34.7 231.049 38.0667 235.316 42.4C239.649 46.7333 242.949 51.9 245.216 57.9C247.549 63.8333 248.716 70.4 248.716 77.6C248.716 87.1333 247.282 95.6667 244.416 103.2C241.549 110.733 237.716 117.833 232.916 124.5L201.516 169.1C200.116 171.033 197.982 172.667 195.116 174C192.316 175.333 189.116 176 185.516 176H156.916L203.116 120.8ZM367.331 30.3V43.3C367.331 47.1667 366.898 50.3 366.031 52.7C365.165 55.0333 364.331 57 363.531 58.6L312.931 165.8C311.531 168.6 309.531 171 306.931 173C304.398 175 300.998 176 296.731 176H274.131L326.131 71.7C327.665 68.9 329.198 66.3667 330.731 64.1C332.331 61.7667 334.098 59.5667 336.031 57.5H271.931C270.998 57.5 270.098 57.3333 269.231 57C268.431 56.6 267.698 56.1 267.031 55.5C266.431 54.8333 265.931 54.1 265.531 53.3C265.131 52.4333 264.931 51.5667 264.931 50.7V30.3H367.331Z" fill="white"/>
</g>
<defs>
<filter id="filter0_d" x="0.899902" y="0.699982" width="398.431" height="211.3" filterUnits="userSpaceOnUse" color-interpolation-filters="sRGB">
<feFlood flood-opacity="0" result="BackgroundImageFix"/>
<feColorMatrix in="SourceAlpha" type="matrix" values="0 0 0 0 0 0 0 0 0 0 0 0 0 0 0 0 0 0 127 0" result="hardAlpha"/>
<feOffset dy="4"/>
<feGaussianBlur stdDeviation="16"/>
<feColorMatrix type="matrix" values="0 0 0 0 0 0 0 0 0 0 0 0 0 0 0 0 0 0 0.6 0"/>
<feBlend mode="normal" in2="BackgroundImageFix" result="effect1_dropShadow"/>
<feBlend mode="normal" in="SourceGraphic" in2="effect1_dropShadow" result="shape"/>
</filter>
</defs>
</svg>
