<svg width="265" height="153" viewBox="0 0 265 153" fill="none" xmlns="http://www.w3.org/2000/svg">
<g filter="url(#filter0_d)">
<path d="M92.82 29.94V37.02C92.82 39.1 92.58 40.78 92.1 42.06C91.66 43.34 91.22 44.42 90.78 45.3L59.1 111.48C58.3 113 57.22 114.3 55.86 115.38C54.5 116.46 52.66 117 50.34 117H38.34L70.8 52.38C71.6 50.86 72.42 49.48 73.26 48.24C74.1 47 75.04 45.82 76.08 44.7H35.94C34.98 44.7 34.1 44.32 33.3 43.56C32.54 42.8 32.16 41.94 32.16 40.98V29.94H92.82ZM117.609 56.28C117.609 60.88 118.729 64.38 120.969 66.78C123.249 69.18 126.569 70.38 130.929 70.38C133.129 70.38 135.089 70.04 136.809 69.36C138.569 68.64 140.029 67.66 141.189 66.42C142.349 65.18 143.229 63.7 143.829 61.98C144.469 60.26 144.789 58.38 144.789 56.34C144.789 54.06 144.449 52.06 143.769 50.34C143.089 48.58 142.129 47.1 140.889 45.9C139.689 44.7 138.249 43.8 136.569 43.2C134.889 42.56 133.029 42.24 130.989 42.24C128.909 42.24 127.049 42.6 125.409 43.32C123.769 44 122.369 44.98 121.209 46.26C120.049 47.5 119.149 48.98 118.509 50.7C117.909 52.42 117.609 54.28 117.609 56.28ZM135.069 83.58C135.669 82.82 136.249 82.08 136.809 81.36C137.369 80.64 137.929 79.92 138.489 79.2C136.569 80.32 134.469 81.18 132.189 81.78C129.949 82.34 127.569 82.62 125.049 82.62C122.129 82.62 119.229 82.1 116.349 81.06C113.509 80.02 110.949 78.46 108.669 76.38C106.389 74.3 104.549 71.7 103.149 68.58C101.749 65.42 101.049 61.72 101.049 57.48C101.049 53.6 101.769 49.94 103.209 46.5C104.649 43.02 106.689 40 109.329 37.44C111.969 34.84 115.129 32.78 118.809 31.26C122.529 29.74 126.649 28.98 131.169 28.98C135.729 28.98 139.829 29.7 143.469 31.14C147.109 32.54 150.189 34.52 152.709 37.08C155.229 39.64 157.169 42.7 158.529 46.26C159.889 49.78 160.569 53.66 160.569 57.9C160.569 60.66 160.349 63.28 159.909 65.76C159.469 68.24 158.829 70.6 157.989 72.84C157.149 75.08 156.129 77.26 154.929 79.38C153.769 81.5 152.449 83.58 150.969 85.62L131.589 113.28C130.789 114.32 129.629 115.2 128.109 115.92C126.629 116.64 124.929 117 123.009 117H107.769L135.069 83.58ZM232.039 29.94V37.02C232.039 39.1 231.799 40.78 231.319 42.06C230.879 43.34 230.439 44.42 229.999 45.3L198.319 111.48C197.519 113 196.439 114.3 195.079 115.38C193.719 116.46 191.879 117 189.559 117H177.559L210.019 52.38C210.819 50.86 211.639 49.48 212.479 48.24C213.319 47 214.259 45.82 215.299 44.7H175.159C174.199 44.7 173.319 44.32 172.519 43.56C171.759 42.8 171.379 41.94 171.379 40.98V29.94H232.039Z" fill="white"/>
</g>
<defs>
<filter id="filter0_d" x="0.160034" y="0.979996" width="263.879" height="152.02" filterUnits="userSpaceOnUse" color-interpolation-filters="sRGB">
<feFlood flood-opacity="0" result="BackgroundImageFix"/>
<feColorMatrix in="SourceAlpha" type="matrix" values="0 0 0 0 0 0 0 0 0 0 0 0 0 0 0 0 0 0 127 0" result="hardAlpha"/>
<feOffset dy="4"/>
<feGaussianBlur stdDeviation="16"/>
<feColorMatrix type="matrix" values="0 0 0 0 0 0 0 0 0 0 0 0 0 0 0 0 0 0 0.6 0"/>
<feBlend mode="normal" in2="BackgroundImageFix" result="effect1_dropShadow"/>
<feBlend mode="normal" in="SourceGraphic" in2="effect1_dropShadow" result="shape"/>
</filter>
</defs>
</svg>
